<?xml version="1.0" encoding="UTF-8" standalone="no"?>
<svg
   viewBox="0.012899876 -0.014625608 171.06418 171.01816"
   stroke="none"
   width="800"
   height="800"
   version="1.1"
   id="svg2"
   sodipodi:docname="skvm.svg"
   xmlns:inkscape="http://www.inkscape.org/namespaces/inkscape"
   xmlns:sodipodi="http://sodipodi.sourceforge.net/DTD/sodipodi-0.dtd"
   xmlns="http://www.w3.org/2000/svg"
   xmlns:svg="http://www.w3.org/2000/svg">
  <defs
     id="defs2" />
  <sodipodi:namedview
     id="namedview2"
     pagecolor="#ffffff"
     bordercolor="#000000"
     borderopacity="0.25"
     inkscape:showpageshadow="2"
     inkscape:pageopacity="0.0"
     inkscape:pagecheckerboard="0"
     inkscape:deskcolor="#d1d1d1"
     inkscape:export-bgcolor="#ffffff00" />
  <path
     d="m 115.89,44.11 c 1.33,-1.92 3.31,-3.22 4.89,-4.9 1.74,-1.84 1.79,-1.82 -0.35,-3.29 A 59.38,59.38 0 0 0 93.52,25.4 C 73.28,23 55.94,29.07 41.75,43.6 a 58.69,58.69 0 0 0 -16.39,34.46 90.71,90.71 0 0 0 -0.4,11 c 0,2 0.61,2.63 2.68,2.62 q 50.31,-0.11 100.61,0 c 0.91,0 2.3,-0.45 2.62,0.27 0.44,1 -0.94,1.58 -1.61,2.25 l -38,38 a 4,4 0 0 1 -2.31,1.65 v -4.61 c 0,-3.83 -0.06,-7.66 0,-11.49 0,-1.58 -0.44,-2.06 -2,-2.05 -12.57,0.06 -25.14,0 -37.7,0 H 7.91 c -1.66,0 -2.47,-0.42 -3,-2.09 C -4.95,83.08 0,55.09 20.48,30.25 c 14,-17 32.4,-26.8 54.21,-29.55 a 85.26,85.26 0 0 1 84.85,41.91 c 0.93,1.58 0.55,1.89 -1.12,1.88 h -41.13 c -0.43,-0.02 -0.93,0.17 -1.4,-0.38 z"
     fill="#0066cc"
     id="path1" />
  <path
     d="m 55.26,126.9 c -1.9,1.87 -3.66,3.69 -5.53,5.39 -1,0.94 -1,1.5 0.16,2.3 a 59.33,59.33 0 0 0 27.38,11 c 20.11,2.47 37.47,-3.45 51.72,-17.85 a 58.84,58.84 0 0 0 16.68,-34.56 91.39,91.39 0 0 0 0.44,-10.85 c 0,-1.46 -0.5,-1.82 -1.86,-1.8 H 41.38 c -0.7,0 -0.8,-0.41 -0.36,-0.91 0.44,-0.5 1.11,-1.17 1.68,-1.74 L 80.92,39.7 a 3.51,3.51 0 0 1 1.89,-1.25 v 5 c 0,3.49 0.07,7 0,10.48 -0.06,1.79 0.58,2.26 2.32,2.26 26.14,-0.13 52.27,0.61 78.41,0.27 2,0 2.75,0.63 3.3,2.49 8.25,27.56 4.59,53.36 -12.19,76.79 -13.05,18.23 -31,29.51 -53.07,33.66 -24.09,4.52 -46.16,-0.56 -66.12,-14.68 A 84.88,84.88 0 0 1 11.53,128.4 c -0.65,-1.09 -1.07,-2 0.88,-2 14.11,0.07 28.22,0.09 42.33,0.14 0.02,0.02 0.07,0.08 0.52,0.36 z"
     fill="#ffcc00"
     id="path2" />
</svg>
