<?xml version="1.0" encoding="UTF-8" standalone="no"?>
<svg
   height="24"
   viewBox="0 -960 960 960"
   width="24"
   version="1.1"
   id="svg1"
   sodipodi:docname="notification_unread.svg"
   inkscape:version="1.3.2 (091e20e, 2023-11-25, custom)"
   xmlns:inkscape="http://www.inkscape.org/namespaces/inkscape"
   xmlns:sodipodi="http://sodipodi.sourceforge.net/DTD/sodipodi-0.dtd"
   xmlns="http://www.w3.org/2000/svg"
   xmlns:svg="http://www.w3.org/2000/svg">
  <defs
     id="defs1" />
  <sodipodi:namedview
     id="namedview1"
     pagecolor="#ffffff"
     bordercolor="#000000"
     borderopacity="0.25"
     inkscape:showpageshadow="2"
     inkscape:pageopacity="0.0"
     inkscape:pagecheckerboard="0"
     inkscape:deskcolor="#d1d1d1"
     inkscape:zoom="32.375"
     inkscape:cx="12"
     inkscape:cy="12"
     inkscape:window-width="1920"
     inkscape:window-height="991"
     inkscape:window-x="-9"
     inkscape:window-y="-9"
     inkscape:window-maximized="1"
     inkscape:current-layer="svg1" />
  <path
     d="M480-80q-33 0-56.5-23.5T400-160h160q0 33-23.5 56.5T480-80Zm0-420ZM160-200v-80h80v-280q0-83 50-147.5T420-792v-28q0-25 17.5-42.5T480-880q25 0 42.5 17.5T540-820v13q-11 22-16 45t-4 47q-10-2-19.5-3.5T480-720q-66 0-113 47t-47 113v280h320v-257q18 8 38.5 12.5T720-520v240h80v80H160Zm560-400q-50 0-85-35t-35-85q0-50 35-85t85-35q50 0 85 35t35 85q0 50-35 85t-85 35Z"
     id="path1" />
  <path
     style="fill:#000000;stroke-width:0.030888"
     d="M 17.343629,8.9149538 C 16.429848,8.7157554 15.601692,8.022278 15.239983,7.1534141 15.07603,6.7595812 15.018846,6.4043456 15.035668,5.8841699 c 0.01642,-0.5077395 0.08986,-0.8165088 0.28862,-1.2135389 0.216083,-0.4316249 0.614509,-0.8847758 1.01548,-1.1549607 0.702603,-0.4734322 1.573644,-0.6165621 2.430074,-0.399311 1.007279,0.2555174 1.846302,1.094125 2.118247,2.1171979 0.06697,0.2519569 0.07873,0.3635391 0.07998,0.7587208 0.0011,0.3343812 -0.01296,0.521234 -0.05034,0.6714227 -0.266441,1.0705427 -1.043056,1.8928368 -2.082569,2.2050616 -0.370391,0.1112497 -1.090753,0.1335586 -1.491531,0.046191 z"
     id="path2"
     transform="matrix(40,0,0,40,0,-960)" />
  <path
     style="fill:#000000;stroke-width:0.030888"
     d="M 17.343629,8.9131731 C 16.308332,8.6945069 15.411249,7.8469022 15.118542,6.8108108 15.034349,6.5127917 15.002069,5.8319035 15.05622,5.4962229 c 0.125124,-0.7756383 0.613316,-1.5289324 1.283548,-1.9805526 0.702603,-0.4734322 1.573644,-0.6165621 2.430074,-0.399311 1.008896,0.2559276 1.845865,1.0924822 2.118247,2.1171979 0.06697,0.2519569 0.07873,0.3635391 0.07998,0.7587208 0.0011,0.3343812 -0.01296,0.521234 -0.05034,0.6714227 -0.293185,1.1779997 -1.229348,2.0724973 -2.382861,2.2768096 -0.283298,0.050178 -0.890174,0.036251 -1.191239,-0.027337 z"
     id="path3"
     transform="matrix(40,0,0,40,0,-960)" />
  <path
     style="fill:#000000"
     d="M 17.451737,8.9401813 C 16.395626,8.7656297 15.418993,7.8743138 15.118542,6.8108108 15.034349,6.5127917 15.002069,5.8319035 15.05622,5.4962229 c 0.183788,-1.1392936 1.071239,-2.1011006 2.210189,-2.3953727 0.233655,-0.06037 0.351888,-0.071477 0.741313,-0.069643 0.393726,0.00185 0.507721,0.013984 0.758914,0.080752 1.027165,0.2730248 1.84838,1.0942392 2.121404,2.1214048 0.06703,0.2521688 0.07878,0.3636575 0.08003,0.7589136 0.0016,0.508505 -0.03112,0.6953847 -0.197081,1.1257412 -0.177411,0.4600423 -0.568454,0.9631749 -1.002645,1.2900466 -0.332394,0.2502357 -0.814077,0.4581603 -1.233472,0.5324445 -0.211171,0.037403 -0.856022,0.037207 -1.083131,-3.29e-4 z"
     id="path4"
     transform="matrix(40,0,0,40,0,-960)" />
  <path
     style="fill:#000000;stroke-width:0.030888"
     d="M 17.451737,8.9401813 C 16.388931,8.7645229 15.420534,7.8762066 15.113571,6.7953668 15.052794,6.5813677 15.04333,6.4758449 15.042931,6.007722 c -5.33e-4,-0.6262353 0.03401,-0.8020788 0.246838,-1.2564699 0.167502,-0.3576216 0.279065,-0.5194318 0.56314,-0.8167697 0.530088,-0.5548368 1.187947,-0.8619049 1.953429,-0.9117995 0.504929,-0.032911 1.012418,0.060485 1.44326,0.2656119 1.380457,0.6572458 2.050295,2.180591 1.594601,3.6264391 -0.324746,1.0303691 -1.244475,1.8371669 -2.309331,2.0257764 -0.211171,0.037403 -0.856022,0.037207 -1.083131,-3.29e-4 z"
     id="path5"
     transform="matrix(40,0,0,40,0,-960)" />
  <path
     style="fill:#000000;stroke-width:0.030888"
     d="M 17.374517,8.926762 C 16.29569,8.6859935 15.414629,7.8554175 15.113571,6.7953668 15.052794,6.5813677 15.04333,6.4758449 15.042931,6.007722 c -5.41e-4,-0.6352738 0.03398,-0.8051645 0.260444,-1.2818533 0.304311,-0.6405409 0.828157,-1.1601784 1.462882,-1.4511272 0.778639,-0.3569171 1.783323,-0.3418643 2.538762,0.038037 0.636635,0.3201562 1.098612,0.7921304 1.407172,1.4376233 0.367345,0.7684705 0.357293,1.8097785 -0.02481,2.5700611 -0.202694,0.403305 -0.634952,0.8990888 -1.007162,1.1551762 -0.204471,0.1406796 -0.674514,0.3564303 -0.915739,0.4203265 -0.279002,0.073902 -1.113925,0.092401 -1.389962,0.030796 z"
     id="path6"
     transform="matrix(40,0,0,40,0,-960)" />
  <path
     style="fill:#df0404;stroke-width:0.030888;fill-opacity:1"
     d="M 17.389961,8.9285041 C 16.281522,8.6937325 15.370828,7.8193198 15.097585,6.7274548 c -0.05632,-0.225065 -0.0676,-0.3542601 -0.06554,-0.7506208 0.0029,-0.5550676 0.05573,-0.8079749 0.256557,-1.2280898 0.547074,-1.1444249 1.650329,-1.80354 2.889001,-1.7259692 0.754799,0.047269 1.345791,0.3079549 1.895263,0.8359999 0.288422,0.2771737 0.464069,0.5226288 0.634826,0.8871242 0.214726,0.4583516 0.249472,0.6339586 0.249667,1.2618229 1.46e-4,0.4716939 -0.0089,0.5720133 -0.07074,0.7876448 -0.284756,0.9924034 -1.093266,1.8050613 -2.075815,2.0864652 -0.299072,0.085655 -1.110895,0.1123215 -1.42085,0.046672 z"
     id="path7"
     transform="matrix(40,0,0,40,0,-960)" />
</svg>
